# xmcd
#
# Track frame offsets: 
#        150
#        22768
#        43914
#        59249
#        74320
#        92020
#        110886
#        128920
#        152359
#        168555
#        202909
#        218037
#        231719
#
# Disc length: 3338 seconds
#
# Revision: 0
# Processed by: cddbd v1.5.2PL0 Copyright (c) Steve Scherf et al.
# Submitted via: ExactAudioCopy v1.0b6
#
DISCID=bd0d080d
DTITLE=Smoove and Turrell - Broken toys
DYEAR=2014
DGENRE=Funk
TTITLE0=Have love
TTITLE1=Will you be mine
TTITLE2=Lay it on me
TTITLE3=Long way to fall
TTITLE4=Play to win
TTITLE5=People keep talking
TTITLE6=Always
TTITLE7=I just want more
TTITLE8=The clown
TTITLE9=Broken toys
TTITLE10=One woman army
TTITLE11=Coming home
TTITLE12=Now or never
EXTD=
EXTT0=
EXTT1=
EXTT2=
EXTT3=
EXTT4=
EXTT5=
EXTT6=
EXTT7=
EXTT8=
EXTT9=
EXTT10=
EXTT11=
EXTT12=
PLAYORDER=
